<?xml version="1.0" encoding="UTF-8" standalone="no"?>
<!-- Created with Inkscape (http://www.inkscape.org/) -->

<svg
   xmlns:dc="http://purl.org/dc/elements/1.1/"
   xmlns:cc="http://creativecommons.org/ns#"
   xmlns:rdf="http://www.w3.org/1999/02/22-rdf-syntax-ns#"
   xmlns:svg="http://www.w3.org/2000/svg"
   xmlns="http://www.w3.org/2000/svg"
   xmlns:sodipodi="http://sodipodi.sourceforge.net/DTD/sodipodi-0.dtd"
   xmlns:inkscape="http://www.inkscape.org/namespaces/inkscape"
   width="70mm"
   height="99.999908mm"
   viewBox="0 0 70 99.999908"
   version="1.1"
   id="svg206"
   inkscape:version="0.92.4 (5da689c313, 2019-01-14)"
   sodipodi:docname="30 ОМБр.svg">
  <defs
     id="defs200" />
  <sodipodi:namedview
     id="base"
     pagecolor="#ffffff"
     bordercolor="#666666"
     borderopacity="1.0"
     inkscape:pageopacity="0.0"
     inkscape:pageshadow="2"
     inkscape:zoom="2.0187726"
     inkscape:cx="132.28346"
     inkscape:cy="188.9762"
     inkscape:document-units="mm"
     inkscape:current-layer="layer1"
     showgrid="false"
     fit-margin-top="0"
     fit-margin-left="0"
     fit-margin-right="0"
     fit-margin-bottom="0"
     inkscape:window-width="1280"
     inkscape:window-height="962"
     inkscape:window-x="-8"
     inkscape:window-y="-8"
     inkscape:window-maximized="1" />
  <metadata
     id="metadata203">
    <rdf:RDF>
      <cc:Work
         rdf:about="">
        <dc:format>image/svg+xml</dc:format>
        <dc:type
           rdf:resource="http://purl.org/dc/dcmitype/StillImage" />
        <dc:title></dc:title>
      </cc:Work>
    </rdf:RDF>
  </metadata>
  <g
     inkscape:label="Layer 1"
     inkscape:groupmode="layer"
     id="layer1"
     transform="translate(-17.160714,-98.833378)">
    <path
       inkscape:connector-curvature="0"
       id="path11"
       d="m 17.160714,118.83329 v 30.6773 c 0,20.58206 10.48297,39.72002 34.999997,49.3227 24.51702,-9.60269 35,-28.74064 35,-49.3227 v -30.6773 z"
       style="color:#000000;clip-rule:nonzero;display:inline;overflow:visible;visibility:visible;opacity:1;isolation:auto;mix-blend-mode:normal;color-interpolation:sRGB;color-interpolation-filters:linearRGB;solid-color:#000000;solid-opacity:1;fill:#ffcc00;fill-opacity:1;fill-rule:nonzero;stroke:none;stroke-width:0.26150194;stroke-linecap:round;stroke-linejoin:round;stroke-miterlimit:4;stroke-dasharray:none;stroke-dashoffset:0;stroke-opacity:1;color-rendering:auto;image-rendering:auto;shape-rendering:auto;text-rendering:auto;enable-background:accumulate" />
    <path
       id="path15"
       d="m 19.631684,121.30428 v 28.20703 c 0,19.4784 9.52186,37.2098 32.529297,46.60156 23.00743,-9.39177 32.5293,-27.12316 32.5293,-46.60156 v -28.20703 z"
       style="color:#000000;clip-rule:nonzero;display:inline;overflow:visible;visibility:visible;opacity:1;isolation:auto;mix-blend-mode:normal;color-interpolation:sRGB;color-interpolation-filters:linearRGB;solid-color:#000000;solid-opacity:1;fill:#c11010;fill-opacity:1;fill-rule:nonzero;stroke:none;stroke-width:0.26150194;stroke-linecap:round;stroke-linejoin:round;stroke-miterlimit:4;stroke-dasharray:none;stroke-dashoffset:0;stroke-opacity:1;color-rendering:auto;image-rendering:auto;shape-rendering:auto;text-rendering:auto;enable-background:accumulate"
       inkscape:connector-curvature="0" />
    <path
       style="opacity:1;fill:#ffcc00;fill-opacity:1;stroke:none;stroke-width:0.25;stroke-linecap:butt;stroke-linejoin:miter;stroke-miterlimit:4;stroke-dasharray:none;stroke-dashoffset:0;stroke-opacity:0.5;paint-order:normal"
       d="m 52.160641,98.833378 c -12.802737,0.0115 -25.191367,2.710962 -34.999927,7.626412 v 12.37352 c 9.80856,-4.91545 22.19719,-7.61491 34.999927,-7.62641 12.79583,0.002 25.18369,2.68981 34.99993,7.59334 v -12.37352 c -9.81624,-4.90353 -22.2041,-7.591112 -34.99993,-7.593342 z"
       id="path1068-9"
       inkscape:connector-curvature="0"
       sodipodi:nodetypes="ccccccc" />
    <path
       inkscape:connector-curvature="0"
       style="opacity:1;fill:#000000;fill-opacity:1;stroke:none;stroke-width:0.25;stroke-linecap:butt;stroke-linejoin:miter;stroke-miterlimit:4;stroke-dasharray:none;stroke-dashoffset:0;stroke-opacity:0.5;paint-order:normal"
       d="m 52.160141,101.30467 c -11.890457,0.0109 -23.342337,2.48207 -32.529287,6.79296 v 7.03126 c 9.56883,-4.09075 20.82897,-6.38208 32.527337,-6.39258 a 2.4708126,2.4708126 0 0 1 0.002,0 c 11.69396,0.002 22.95474,2.28253 32.5293,6.36328 v -7.03125 c -9.1939,-4.29972 -20.64442,-6.76134 -32.52756,-6.76367 z"
       id="path89" />
    <path
       inkscape:connector-curvature="0"
       style="color:#000000;clip-rule:nonzero;display:inline;overflow:visible;visibility:visible;opacity:1;isolation:auto;mix-blend-mode:normal;color-interpolation:sRGB;color-interpolation-filters:linearRGB;solid-color:#000000;solid-opacity:1;fill:#000000;fill-opacity:1;fill-rule:nonzero;stroke:none;stroke-width:0.26150194;stroke-linecap:round;stroke-linejoin:round;stroke-miterlimit:4;stroke-dasharray:none;stroke-dashoffset:0;stroke-opacity:1;color-rendering:auto;image-rendering:auto;shape-rendering:auto;text-rendering:auto;enable-background:accumulate"
       d="m 52.161161,121.30436 v 74.80835 c 23.00743,-9.39177 32.52928,-27.12289 32.52928,-46.60129 v -28.20706 z"
       id="path59" />
    <path
       inkscape:connector-curvature="0"
       d="m 58.208451,156.31734 -1.6822,7.95393 7.72992,2.5202 -7.72992,2.52019 1.68219,7.95392 -6.04773,-5.43374 -6.047728,5.43374 1.682188,-7.95393 -7.729927,-2.52019 7.729927,-2.52019 -1.682177,-7.95393 6.047717,5.43374 z"
       id="path3560"
       style="opacity:1;fill:#ffffff;fill-opacity:1;fill-rule:evenodd;stroke:none;stroke-width:0.35826647;stroke-linecap:butt;stroke-linejoin:miter;stroke-miterlimit:4;stroke-dasharray:none;stroke-opacity:1"
       sodipodi:nodetypes="ccccccccccccc" />
    <path
       style="opacity:1;fill:#ffffff;fill-opacity:1;stroke:none;stroke-width:4.6050601;stroke-linecap:butt;stroke-linejoin:miter;stroke-miterlimit:4;stroke-dasharray:none;paint-order:stroke fill markers"
       d="m 52.160711,127.73591 c -13.735207,0 -19.511987,9.2692 -19.511987,9.2692 l 6.02185,-0.88108 1.26298,5.58053 c 0,0 3.64156,-7.84812 10.540437,-8.99428 v 15.4559 c -17.683047,0.9218 -20.195147,16.25638 -20.195147,16.25638 l 4.08657,-2.20814 2.00453,4.13153 c 0,0 2.16771,-14.03583 15.790767,-14.03583 13.62305,0 15.79128,14.03583 15.79128,14.03583 l 2.00402,-4.13153 4.08657,2.20814 c 0,0 -2.51159,-15.33458 -20.19464,-16.25638 v -15.4559 c 6.89889,1.14616 10.54044,8.99428 10.54044,8.99428 l 1.26298,-5.58053 6.02133,0.88108 c 0,0 -5.77676,-9.2692 -19.51198,-9.2692 z"
       id="rect891"
       inkscape:connector-curvature="0" />
    <path
       style="opacity:1;fill:#ffffff;fill-opacity:1;stroke:none;stroke-width:0.98883468;stroke-linecap:butt;stroke-linejoin:miter;stroke-miterlimit:4;stroke-dasharray:none;paint-order:normal"
       d="m 31.420874,167.64165 a 21.063684,24.306912 0 0 0 20.756607,20.1724 21.063684,24.306912 0 0 0 20.72307,-20.08355 23.871851,25.633512 0 0 1 -20.72307,12.94739 23.871851,25.633512 0 0 1 -20.756607,-13.03624 z"
       id="path921"
       inkscape:connector-curvature="0" />
    <path
       inkscape:connector-curvature="0"
       class="st6"
       d="m 20.201784,108.88283 c 1.83445,-0.73375 2.73369,-1.10061 4.56813,-1.72429 0.539551,-0.18343 0.93521,-0.25681 1.25893,-0.25681 0.28776,0 0.61149,0.11009 0.89924,0.2935 0.57552,0.36687 0.8273,0.88049 0.8273,1.54086 0,0.69705 -0.28775,1.35742 -0.86327,1.9811 -0.57551,0.62368 -1.33086,1.10061 -2.2301,1.3941 -1.798479,0.62369 -2.69772,0.95387 -4.46023,1.68761 0.503581,-0.66036 0.75536,-0.99055 1.25894,-1.65092 0,-1.02723 0,-1.57755 0,-2.60478 -0.50358,-0.2935 -0.755359,-0.44025 -1.25894,-0.66037 z m 3.05741,2.71485 c 0.359701,-0.1101 0.50358,-0.18343 0.86327,-0.2935 0.61148,-0.22012 1.00715,-0.44025 1.22297,-0.69706 0.21582,-0.25681 0.28775,-0.66037 0.28775,-1.21067 0,-1.10061 -0.50357,-1.50416 -1.51072,-1.1373 -0.35969,0.1101 -0.53954,0.18344 -0.86327,0.33018 0,1.17399 0,1.76098 0,3.00835 z"
       id="path44"
       style="fill:#ffffff;stroke-width:0.36326537" />
    <path
       inkscape:connector-curvature="0"
       class="st6"
       d="m 34.985264,104.29695 c 0,0.8438 0,1.24735 0,2.09115 -0.53955,-0.40355 -0.8273,-0.62367 -1.36685,-1.02723 -1.00714,0.22012 -1.51072,0.36687 -2.51786,0.62368 0,0.44024 0,0.62368 0,1.06392 0.53954,-0.14674 0.8273,-0.22012 1.40281,-0.36686 0.39566,-0.33018 0.57552,-0.47694 1.00715,-0.80712 0,0.88049 0,1.32074 0,2.20123 -0.39567,-0.18343 -0.61149,-0.25681 -1.00715,-0.44025 -0.53954,0.14675 -0.8273,0.22013 -1.40281,0.36687 0,0.44025 0,0.66037 0,1.06392 1.00714,-0.25681 1.51072,-0.40355 2.51786,-0.62367 0.57551,-0.69706 0.86327,-1.02724 1.47475,-1.72429 0,0.95386 0,1.43078 0,2.38465 -2.87755,0.58699 -4.31634,0.95387 -7.12196,1.83436 0.50357,-0.62368 0.79133,-0.91718 1.2949,-1.50417 0,-1.06393 0,-1.57754 0,-2.60479 -0.53954,-0.29349 -0.79133,-0.44025 -1.2949,-0.73373 2.76965,-0.8438 4.20844,-1.21068 7.01406,-1.79767 z"
       id="path46"
       style="fill:#ffffff;stroke-width:0.36326537" />
    <path
       inkscape:connector-curvature="0"
       class="st6"
       d="m 35.632714,104.1502 c 1.79847,-0.36688 2.66174,-0.51362 4.46022,-0.77043 -0.53954,0.55031 -0.79133,0.80711 -1.33087,1.35742 0,1.02724 0,1.57755 0,2.60478 0.53954,0.36687 0.79133,0.55032 1.33087,0.95387 -1.79848,0.25681 -2.69771,0.40356 -4.46022,0.77042 0.53954,-0.5503 0.79133,-0.8438 1.33088,-1.3941 0,-1.02724 0,-1.57754 0,-2.60479 -0.53955,-0.36687 -0.79134,-0.5503 -1.33088,-0.91717 z"
       id="path48"
       style="fill:#ffffff;stroke-width:0.36326537" />
    <path
       inkscape:connector-curvature="0"
       class="st6"
       d="m 48.617721,102.57266 c 0,0.88049 0,1.28404 0,2.16453 -0.89925,-0.91718 -1.83445,-1.32073 -2.877567,-1.24735 -0.467609,0.0367 -0.827299,0.22012 -1.07909,0.5503 -0.251791,0.33019 -0.395661,0.80711 -0.395661,1.35742 0,1.10061 0.503561,1.61424 1.510721,1.54086 0.467611,-0.0367 0.827307,-0.18344 1.115057,-0.47694 0,-0.11009 0,-0.14674 0,-0.25681 -0.611497,-0.44024 -0.899237,-0.62368 -1.474756,-1.06392 1.834446,-0.14675 2.769656,-0.18343 4.604096,-0.25681 -0.53954,0.47693 -0.79132,0.69705 -1.33087,1.21068 0,0.62368 0,0.91718 0,1.54085 -0.32372,-0.18343 -0.50357,-0.2935 -0.8273,-0.47693 -0.75535,0.36687 -1.546686,0.58699 -2.338018,0.66037 -0.97118,0.0734 -1.798479,-0.0733 -2.445929,-0.51363 -0.64745,-0.40355 -0.97117,-0.99054 -0.97117,-1.6876 0,-0.73374 0.35969,-1.4308 1.07908,-2.05448 0.719391,-0.62368 1.58265,-0.99054 2.58981,-1.06392 0.863267,-0.0734 1.582647,0.11009 2.194137,0.51362 0.25178,-0.11009 0.39567,-0.22012 0.64746,-0.44024 z"
       id="path50"
       style="fill:#ffffff;stroke-width:0.36326537" />
    <path
       inkscape:connector-curvature="0"
       class="st6"
       d="m 50.020521,102.53597 c 1.76251,-0.0367 2.66175,-0.0367 4.42426,0 0.25177,0 0.39566,0 0.68341,0 0.3597,0.0367 0.50358,0.0734 0.86327,0.11009 0.43163,0.0734 0.79134,0.25682 1.04313,0.51363 0.25177,0.25681 0.39566,0.55031 0.39566,0.88049 0,0.62368 -0.53955,0.99056 -1.58267,1.10061 0.35969,0.14674 0.64747,0.33019 0.8273,0.55031 0.17985,0.22013 0.35971,0.62368 0.53955,1.13729 0.35969,0.2935 0.53954,0.44025 0.89924,0.77044 -1.04313,-0.0734 -1.54668,-0.1101 -2.5898,-0.14675 -0.21582,-0.73374 -0.43164,-1.24737 -0.6115,-1.57754 -0.10794,-0.22013 -0.35969,-0.33019 -0.75535,-0.33019 -0.35969,0 -0.53955,0 -0.89924,0 0,0.2935 0,0.44024 0,0.73374 0.53955,0.47694 0.79132,0.69706 1.33087,1.17399 -1.83445,-0.0367 -2.73368,-0.0367 -4.56813,0 0.53955,-0.47693 0.79133,-0.69705 1.33088,-1.17399 0,-1.02723 0,-1.57755 0,-2.60478 -0.53955,-0.47693 -0.79133,-0.69706 -1.33088,-1.1373 z m 3.23726,2.01779 c 0.4676,0 0.71939,0 1.187,0.0367 0.14387,0 0.21582,0 0.35969,0 0.39566,0 0.61149,-0.14675 0.61149,-0.51362 0,-0.22012 -0.0719,-0.40356 -0.21583,-0.47693 -0.14387,-0.0734 -0.39566,-0.14675 -0.79132,-0.14675 -0.46761,0 -0.7194,0 -1.22297,-0.0367 0.0719,0.47693 0.0719,0.69705 0.0719,1.1373 z"
       id="path52"
       style="fill:#ffffff;stroke-width:0.36326537" />
    <path
       inkscape:connector-curvature="0"
       class="st6"
       d="m 63.796851,103.34308 c -0.35969,0.2935 -0.53954,0.47693 -0.86326,0.77043 0.61147,1.21067 0.89923,1.83435 1.51071,3.04503 0.53955,0.5503 0.8273,0.80711 1.36685,1.35742 -1.83446,-0.2935 -2.73368,-0.44024 -4.56814,-0.62367 0.50358,-0.33019 0.75537,-0.51363 1.25893,-0.84382 -0.0719,-0.14674 -0.10794,-0.22012 -0.17984,-0.36686 -0.8273,-0.1101 -1.25893,-0.14675 -2.08623,-0.22013 -0.0719,0.1101 -0.10794,0.18344 -0.17983,0.33019 0.43162,0.44025 0.64744,0.66037 1.11503,1.10062 -1.36683,-0.14676 -2.05026,-0.22013 -3.4171,-0.2935 0.43163,-0.44025 0.64745,-0.62368 1.07908,-1.06393 0.61148,-1.10061 0.89924,-1.65092 1.51072,-2.71485 -0.35969,-0.40355 -0.50356,-0.58699 -0.86327,-0.95387 1.76251,0.1101 2.62578,0.22013 4.31635,0.47694 z m -2.55384,1.10061 c -0.25179,0.51363 -0.39566,0.73375 -0.64745,1.24737 0.53955,0.0366 0.79133,0.0734 1.33088,0.14675 -0.25179,-0.58699 -0.39567,-0.84381 -0.68343,-1.39412 z"
       id="path54"
       style="fill:#ffffff;stroke-width:0.36326537" />
    <path
       inkscape:connector-curvature="0"
       class="st6"
       d="m 71.782091,104.84725 c 0.036,0.95387 0.0719,1.4308 0.10795,2.38467 -0.53956,-0.73375 -0.82731,-1.10061 -1.36686,-1.83436 -0.32372,-0.0734 -0.50358,-0.1101 -0.8273,-0.18343 0,1.1373 0,1.72429 0,2.86159 0.53954,0.58699 0.79133,0.8438 1.33088,1.43079 -1.79848,-0.40356 -2.69771,-0.58699 -4.53216,-0.91718 0.53953,-0.36687 0.79132,-0.5503 1.33087,-0.88049 0,-1.13729 0,-1.72429 0,-2.86159 -0.32373,-0.0733 -0.50358,-0.1101 -0.86326,-0.14675 -0.53956,0.51363 -0.82732,0.73375 -1.40283,1.24736 0.036,-0.95386 0.0719,-1.3941 0.10795,-2.34797 2.48189,0.44025 3.70485,0.66037 6.11481,1.24736 z"
       id="path57"
       style="fill:#ffffff;stroke-width:0.36326537" />
    <path
       inkscape:connector-curvature="0"
       class="st6"
       d="m 72.141791,104.92063 c 1.76249,0.44024 2.66173,0.66036 4.38827,1.21068 -0.50356,0.29348 -0.79132,0.44024 -1.29489,0.73373 0,1.02725 0,1.57755 0,2.60478 0.53954,0.62369 0.79133,0.91718 1.29489,1.54086 -1.76251,-0.5503 -2.62578,-0.77042 -4.38827,-1.21067 0.53953,-0.33019 0.79133,-0.47693 1.33086,-0.80711 0,-1.02725 0,-1.57755 0,-2.6048 -0.53953,-0.58698 -0.8273,-0.88049 -1.33086,-1.46747 z"
       id="path60"
       style="fill:#ffffff;stroke-width:0.36326537" />
    <path
       inkscape:connector-curvature="0"
       class="st6"
       d="m 82.177281,108.11241 c -0.32372,0.22012 -0.50357,0.33018 -0.8273,0.58699 0.57551,1.35742 0.86327,2.05448 1.47476,3.41189 0.53954,0.66037 0.79132,0.99056 1.2949,1.68761 -1.72654,-0.73374 -2.62577,-1.06392 -4.38829,-1.68761 0.50359,-0.22012 0.7194,-0.33018 1.22297,-0.5503 -0.0719,-0.14674 -0.10794,-0.22012 -0.14389,-0.40356 -0.79132,-0.2935 -1.22296,-0.44024 -2.01427,-0.69705 -0.0719,0.11009 -0.10795,0.18343 -0.1439,0.2935 0.43165,0.5503 0.64746,0.80711 1.07909,1.35741 -1.33086,-0.44025 -1.97831,-0.66037 -3.30918,-1.06392 0.43162,-0.33018 0.61147,-0.47694 1.0431,-0.80711 0.57551,-0.95387 0.86327,-1.43081 1.43878,-2.38466 -0.32372,-0.47694 -0.50356,-0.69706 -0.8273,-1.17399 1.6546,0.47693 2.48191,0.77043 4.10053,1.4308 z m -2.44593,0.51361 c -0.25178,0.44024 -0.35969,0.66037 -0.61147,1.10061 0.50357,0.18343 0.75535,0.25681 1.2949,0.44025 -0.28775,-0.62368 -0.43164,-0.91718 -0.68343,-1.54086 z"
       id="path62"
       style="fill:#ffffff;stroke-width:0.36326537" />
  </g>
</svg>
